<svg xmlns="http://www.w3.org/2000/svg" width="35.221" height="34.379" viewBox="0 0 35.221 34.379"><defs><style>.a{fill:#e3e3e3;}</style></defs><g transform="translate(0 0)"><g transform="translate(0 0)"><path class="a" d="M121.437,22.033c4.746,0,8.594-4.5,8.594-10.059,0-7.7-3.848-10.059-8.594-10.059s-8.594,2.355-8.594,10.059C112.843,17.53,116.691,22.033,121.437,22.033Z" transform="translate(-103.826 -1.916)"/><path class="a" d="M35.048,232.462l-3.984-7.521a1.842,1.842,0,0,0-.9-.8l-6.183-2.7a.463.463,0,0,0-.424.03,11.281,11.281,0,0,1-11.892,0,.464.464,0,0,0-.424-.03l-6.183,2.7a1.841,1.841,0,0,0-.9.8L.172,232.462a1.435,1.435,0,0,0,.151,1.587,2.1,2.1,0,0,0,1.67.759H33.228a2.105,2.105,0,0,0,1.67-.759A1.435,1.435,0,0,0,35.048,232.462Z" transform="translate(0.001 -200.43)"/></g></g></svg>