<svg xmlns="http://www.w3.org/2000/svg" width="18.5" height="20.412" viewBox="0 0 18.5 20.412"><defs><style>.a{fill:#ffe082;}.b{fill:#ff8a65;}.c{fill:#ff7043;}.d{fill:#eee;}.e{fill:#ffd54f;}.f{fill:#fff;}</style></defs><g transform="translate(0.002 0)"><path class="a" d="M56.043,8V27.774H71.99V9.914A1.914,1.914,0,0,0,70.076,8Zm0,0" transform="translate(-53.81 -7.681)"/><path class="b" d="M168.043,368v4.146l1.116-.638,1.116.638V368Zm0,0" transform="translate(-161.345 -353.329)"/><path class="c" d="M128.043,368v3.508l1.595-.8V368Zm0,0" transform="translate(-122.939 -353.329)"/><path class="b" d="M23.99,8a1.914,1.914,0,1,0,0,3.827H9.957A1.914,1.914,0,1,1,9.957,8Zm0,0" transform="translate(-7.724 -7.681)"/><path class="d" d="M102.422,243.053c0,.326-.379.588-.475.882s.05.739-.135.993-.647.247-.9.434-.387.626-.691.725-.66-.18-.986-.18-.692.276-.986.18-.438-.542-.691-.725-.717-.178-.9-.434-.035-.688-.134-.993-.475-.555-.475-.882.379-.588.475-.882-.05-.739.135-.993.647-.247.9-.434.387-.626.691-.725.66.18.986.18.692-.276.986-.18.438.542.691.725.717.178.9.434.035.688.134.992S102.422,242.727,102.422,243.053Zm0,0" transform="translate(-92.215 -230.431)"/><path class="e" d="M139.232,278.2a1.595,1.595,0,1,1-1.595-1.595A1.595,1.595,0,0,1,139.232,278.2Zm0,0" transform="translate(-130.621 -265.582)"/><g transform="translate(1.276 1.275)"><path class="f" d="M108.8,144.638h-1.276V144H108.8Zm-1.914,0h-1.914V144h1.914Zm-2.552,0h-3.189V144h3.189Zm-3.827,0H96.043V144h4.465Zm0,0" transform="translate(-93.491 -139.535)"/><path class="f" d="M108.8,184.638h-4.465V184H108.8Zm-5.1,0h-3.189V184H103.7Zm-3.827,0H97.957V184H99.87Zm-2.552,0H96.043V184h1.276Zm0,0" transform="translate(-93.491 -177.94)"/><path class="f" d="M247.06,224.638h-.638V224h.638Zm-1.276,0h-1.276V224h1.276Zm-1.914,0h-3.827V224h3.827Zm0,0" transform="translate(-231.751 -216.345)"/><path class="f" d="M277.784,264.638h-.638V264h.638Zm-1.276,0h-4.465V264h4.465Zm0,0" transform="translate(-262.475 -254.751)"/><path class="f" d="M293.146,304.638h-3.189V304h3.189Zm-3.827,0h-1.276V304h1.276Zm0,0" transform="translate(-277.837 -293.156)"/><path class="f" d="M277.784,344.638h-.957V344h.957Zm-1.595,0h-2.233V344h2.233Zm-2.87,0h-1.276V344h1.276Zm0,0" transform="translate(-262.475 -331.561)"/><path class="f" d="M336.043,456h2.552v.638h-2.552Zm0,0" transform="translate(-323.923 -439.096)"/><path class="f" d="M320.043,424h3.827v.638h-3.827Zm0,0" transform="translate(-308.561 -408.372)"/><path class="f" d="M33,33.914A.957.957,0,1,1,33,32v.638a.319.319,0,0,0,0,.638Zm0,0" transform="translate(-32.043 -32)"/></g><path d="M16.286,0H2.233a2.233,2.233,0,0,0-.319,4.443v15.97H18.5V2.232A2.235,2.235,0,0,0,16.286,0ZM.638,2.232A1.6,1.6,0,0,1,2.233.637H14.7a2.23,2.23,0,0,0,0,3.189H2.233A1.6,1.6,0,0,1,.638,2.232ZM17.861,19.774H2.552V4.465H16.585V3.827h-.319a1.595,1.595,0,1,1,1.595-1.595Zm0,0" transform="translate(0)"/><path d="M94.57,234.534a1.174,1.174,0,0,1-.02-.332,1.171,1.171,0,0,0-.159-.75,1.192,1.192,0,0,0-.67-.386.644.644,0,0,1-.509-.369,1.194,1.194,0,0,0-.575-.52,1.16,1.16,0,0,0-.754.08.689.689,0,0,1-.66,0,1.165,1.165,0,0,0-.754-.08,1.194,1.194,0,0,0-.577.521,1.163,1.163,0,0,1-.2.249,1.179,1.179,0,0,1-.305.12,1.191,1.191,0,0,0-.669.384,1.171,1.171,0,0,0-.159.75,1.177,1.177,0,0,1-.021.332,1.151,1.151,0,0,1-.171.265.963.963,0,0,0,0,1.432,1.158,1.158,0,0,1,.171.264,1.177,1.177,0,0,1,.021.332,1.17,1.17,0,0,0,.159.75,1.1,1.1,0,0,0,.606.365v3.646l1.595-.8v1.467l1.435-.82,1.435.822v-4.318a1.1,1.1,0,0,0,.606-.365,1.172,1.172,0,0,0,.159-.75,1.177,1.177,0,0,1,.021-.332,1.163,1.163,0,0,1,.171-.264.963.963,0,0,0,0-1.432A1.146,1.146,0,0,1,94.57,234.534Zm-3.656,5.544-.957.478v-2.131a1.048,1.048,0,0,0,.51.428.841.841,0,0,0,.446.009Zm2.233,1.085-.8-.456-.8.454v-2.473a1.2,1.2,0,0,1,.33.085,1.612,1.612,0,0,0,.521.116.745.745,0,0,0,.233-.036,1.049,1.049,0,0,0,.51-.427Zm1.087-5.316a1.574,1.574,0,0,0-.27.455,1.636,1.636,0,0,0-.052.542.823.823,0,0,1-.037.363.807.807,0,0,1-.337.149,1.617,1.617,0,0,0-.5.215,1.592,1.592,0,0,0-.353.4c-.082.119-.175.253-.249.277a.834.834,0,0,1-.349-.077,1.262,1.262,0,0,0-1.077,0,.844.844,0,0,1-.349.077c-.074-.024-.167-.159-.249-.278a1.6,1.6,0,0,0-.353-.4,1.631,1.631,0,0,0-.5-.215.812.812,0,0,1-.337-.149.826.826,0,0,1-.038-.363,1.629,1.629,0,0,0-.052-.542,1.575,1.575,0,0,0-.27-.454.381.381,0,0,1,0-.657,1.575,1.575,0,0,0,.27-.454,1.629,1.629,0,0,0,.052-.542.824.824,0,0,1,.037-.362.809.809,0,0,1,.337-.149,1.227,1.227,0,0,0,.85-.617c.082-.119.175-.253.249-.277a.835.835,0,0,1,.349.076,1.271,1.271,0,0,0,1.077,0,.842.842,0,0,1,.349-.076c.074.024.167.159.249.277a1.227,1.227,0,0,0,.849.617.809.809,0,0,1,.337.149.824.824,0,0,1,.037.362,1.637,1.637,0,0,0,.052.542,1.574,1.574,0,0,0,.27.454.381.381,0,0,1,0,.657Zm0,0" transform="translate(-84.534 -222.893)"/><path d="M129.957,268.609a1.914,1.914,0,1,0,1.914,1.914A1.914,1.914,0,0,0,129.957,268.609Zm0,3.189a1.276,1.276,0,1,1,1.276-1.276A1.276,1.276,0,0,1,129.957,271.8Zm0,0" transform="translate(-122.939 -257.901)"/></g></svg>