<svg xmlns="http://www.w3.org/2000/svg" width="32.746" height="13.514" viewBox="0 0 32.746 13.514"><defs><style>.a{fill:#fff;}.b{fill:#81b3ef;}.c{fill:#2680eb;}.d{fill:#ccd1d9;}.e{fill:#656d78;}.f{fill:#e6e9ed;}</style></defs><g transform="translate(0 0)"><path class="a" d="M51.992,0H81.36V13.514H51.992Zm0,0" transform="translate(-48.614)"/><path class="b" d="M93.659,20.682a.6.6,0,0,1,.14-.52.312.312,0,0,0,0-.44.6.6,0,0,1-.14-.52.31.31,0,0,0-.219-.38.6.6,0,0,1-.381-.38.311.311,0,0,0-.379-.221.594.594,0,0,1-.52-.139.312.312,0,0,0-.44,0,.6.6,0,0,1-.52.139.312.312,0,0,0-.38.22.6.6,0,0,1-.381.381.312.312,0,0,0-.22.38.6.6,0,0,1-.139.52.312.312,0,0,0,0,.44.6.6,0,0,1,.139.52.311.311,0,0,0,.22.38.6.6,0,0,1,.381.381.312.312,0,0,0,.381.219.6.6,0,0,1,.52.139.311.311,0,0,0,.439,0,.6.6,0,0,1,.52-.139.311.311,0,0,0,.38-.219.6.6,0,0,1,.381-.381A.311.311,0,0,0,93.659,20.682Zm0,0" transform="translate(-84.142 -16.823)"/><path class="c" d="M109.559,36.78a.78.78,0,1,1-.78-.78A.78.78,0,0,1,109.559,36.78Zm0,0" transform="translate(-100.983 -33.661)"/><path class="a" d="M337.356,102.339a.261.261,0,0,1-.26.26H328.26a.261.261,0,0,1-.26-.26V100.26a.261.261,0,0,1,.26-.26H337.1a.261.261,0,0,1,.26.26Zm0,0" transform="translate(-306.689 -93.503)"/><path class="b" d="M3.637,1.04l.52-.52L3.637,0H0V13.514H3.637l.52-.52-.52-.52.52-.52-.52-.52.52-.52-.52-.52.52-.52-.52-.52.52-.52-.52-.52.52-.52-.52-.52.52-.52-.52-.52.52-.52-.52-.52.52-.52-.52-.52.52-.52-.52-.52.52-.52-.52-.52.52-.52Zm0,0"/><g transform="translate(5.977 1.819)"><path class="d" d="M92.462,164.52a.262.262,0,0,1-.262-.26.258.258,0,0,1,.257-.26h.006a.26.26,0,1,1,0,.52Zm0,0" transform="translate(-92.186 -155.164)"/><path class="d" d="M108.461,164.52a.262.262,0,0,1-.262-.26.258.258,0,0,1,.257-.26h.006a.26.26,0,1,1,0,.52Zm0,0" transform="translate(-107.146 -155.164)"/><path class="d" d="M124.461,164.52a.262.262,0,0,1-.262-.26.258.258,0,0,1,.257-.26h.006a.26.26,0,1,1,0,.52Zm0,0" transform="translate(-122.107 -155.164)"/><path class="d" d="M140.461,164.52a.262.262,0,0,1-.262-.26.258.258,0,0,1,.257-.26h.006a.26.26,0,1,1,0,.52Zm0,0" transform="translate(-137.067 -155.164)"/><path class="d" d="M172.461,164.52a.262.262,0,0,1-.262-.26.258.258,0,0,1,.257-.26h.006a.26.26,0,1,1,0,.52Zm0,0" transform="translate(-166.988 -155.164)"/><path class="d" d="M188.461,164.52a.262.262,0,0,1-.262-.26.258.258,0,0,1,.257-.26h.006a.26.26,0,1,1,0,.52Zm0,0" transform="translate(-181.949 -155.164)"/><path class="d" d="M204.461,164.52a.262.262,0,0,1-.262-.26.258.258,0,0,1,.257-.26h.006a.26.26,0,1,1,0,.52Zm0,0" transform="translate(-196.909 -155.164)"/><path class="d" d="M220.461,164.52a.262.262,0,0,1-.262-.26.258.258,0,0,1,.257-.26h.006a.26.26,0,1,1,0,.52Zm0,0" transform="translate(-211.87 -155.164)"/><path class="d" d="M252.461,164.52a.262.262,0,0,1-.262-.26.258.258,0,0,1,.257-.26h.006a.26.26,0,1,1,0,.52Zm0,0" transform="translate(-241.791 -155.164)"/><path class="d" d="M268.461,164.52a.262.262,0,0,1-.262-.26.258.258,0,0,1,.257-.26h.006a.26.26,0,1,1,0,.52Zm0,0" transform="translate(-256.751 -155.164)"/><path class="d" d="M284.461,164.52a.262.262,0,0,1-.262-.26.258.258,0,0,1,.257-.26h.006a.26.26,0,1,1,0,.52Zm0,0" transform="translate(-271.711 -155.164)"/><path class="d" d="M300.461,164.52a.262.262,0,0,1-.262-.26.258.258,0,0,1,.257-.26h.006a.26.26,0,1,1,0,.52Zm0,0" transform="translate(-286.672 -155.164)"/><path class="d" d="M169.977,28.52H164.26a.26.26,0,1,1,0-.52h5.717a.26.26,0,1,1,0,.52Zm0,0" transform="translate(-159.322 -28)"/><path class="d" d="M169.977,44.52H164.26a.26.26,0,1,1,0-.52h5.717a.26.26,0,1,1,0,.52Zm0,0" transform="translate(-159.322 -42.96)"/><path class="d" d="M167.379,60.52H164.26a.26.26,0,1,1,0-.52h3.119a.26.26,0,1,1,0,.52Zm0,0" transform="translate(-159.322 -57.921)"/><path class="d" d="M107.644,108.52H94.26a.26.26,0,1,1,0-.52h13.384a.26.26,0,1,1,0,.52Zm0,0" transform="translate(-93.87 -102.802)"/><path class="d" d="M107.644,124.52H94.26a.26.26,0,0,1,0-.52h13.384a.26.26,0,1,1,0,.52Zm0,0" transform="translate(-93.87 -117.763)"/><path class="d" d="M95.379,180.52H92.26a.26.26,0,1,1,0-.52h3.119a.26.26,0,1,1,0,.52Zm0,0" transform="translate(-92 -170.124)"/><path class="d" d="M255.428,180.52H252.26a.26.26,0,0,1,0-.52h3.168a.26.26,0,1,1,0,.52Zm0,0" transform="translate(-241.605 -170.124)"/><path class="d" d="M337.1,180.52H328.26a.26.26,0,1,1,0-.52H337.1a.26.26,0,0,1,0,.52Zm0,0" transform="translate(-312.667 -170.124)"/><path class="d" d="M175.379,180.52H172.26a.26.26,0,1,1,0-.52h3.119a.26.26,0,0,1,0,.52Zm0,0" transform="translate(-166.802 -170.124)"/></g><path class="e" d="M359.381,150.646a.267.267,0,0,1-.075-.011.26.26,0,0,1-.185-.249v-.95a2.208,2.208,0,0,1-1.549.678.813.813,0,0,1-.5-.292c-.214.27-.429.524-.613.734a.26.26,0,0,1-.392-.341c.255-.293.515-.613.748-.918a1.624,1.624,0,0,1,.327-1.579.708.708,0,0,1,.777-.171.38.38,0,0,1,.232.272c.077.321-.293.947-.748,1.569.1.185.208.205.249.212.477.089,1.338-.715,1.527-.938a.262.262,0,0,1,.462.165v.7l.563-.845a.26.26,0,0,1,.216-.116h1.04a.26.26,0,1,1,0,.52h-.9l-.963,1.443a.26.26,0,0,1-.216.116Zm-1.75-2.628a.275.275,0,0,0-.129.076.913.913,0,0,0-.232.574A3.042,3.042,0,0,0,357.631,148.018Zm0,0" transform="translate(-332.873 -137.911)"/><path class="f" d="M348.26,109.559a.26.26,0,0,1-.26-.26v-1.04a.26.26,0,1,1,.52,0v1.04A.26.26,0,0,1,348.26,109.559Zm0,0" transform="translate(-325.39 -100.983)"/><path class="f" d="M364.78,109.559a.78.78,0,1,1,.78-.78A.781.781,0,0,1,364.78,109.559Zm0-1.04a.26.26,0,1,0,.26.26A.261.261,0,0,0,364.78,108.52Zm0,0" transform="translate(-340.35 -100.983)"/><path class="f" d="M396.78,109.559a.78.78,0,1,1,.78-.78A.781.781,0,0,1,396.78,109.559Zm0-1.04a.26.26,0,1,0,.26.26A.261.261,0,0,0,396.78,108.52Zm0,0" transform="translate(-370.271 -100.983)"/><path class="f" d="M428.78,109.559a.78.78,0,1,1,.78-.78A.781.781,0,0,1,428.78,109.559Zm0-1.04a.26.26,0,1,0,.26.26A.261.261,0,0,0,428.78,108.52Zm0,0" transform="translate(-400.192 -100.983)"/></g></svg>