<svg xmlns="http://www.w3.org/2000/svg" width="31.002" height="17" viewBox="0 0 31.002 17"><defs><style>.a{fill:#707070;}</style></defs><path class="a" d="M-5922-2892h-25a3,3,0,0,1-3-3v-11a3,3,0,0,1,3-3h25a3,3,0,0,1,3,3v11A3,3,0,0,1-5922-2892Zm-7-9v6h6v-6Zm-8.687-.058V-2896h.827v-3.106c0-.071,0-.138,0-.2,0-.039,0-.08-.006-.122l0-.03,0-.043,0-.023h0l2.642,3.372a.42.42,0,0,0,.146.125.47.47,0,0,0,.187.034h.482v-5.062h-.827v3.076c0,.072,0,.157.006.2v.028a2.259,2.259,0,0,0,.019.229l-2.657-3.383a.561.561,0,0,0-.073-.083.569.569,0,0,0-.053-.041l-.006,0h-.006a.286.286,0,0,0-.07-.018.579.579,0,0,0-.109-.006Zm-8.771,0V-2896h.942v-1.782h.705a2.761,2.761,0,0,0,.86-.122,1.729,1.729,0,0,0,.613-.342,1.459,1.459,0,0,0,.369-.528,1.846,1.846,0,0,0,.122-.674,1.745,1.745,0,0,0-.116-.65,1.282,1.282,0,0,0-.356-.513,1.615,1.615,0,0,0-.613-.333,2.944,2.944,0,0,0-.879-.119Zm4.731,3.817h2.1l.378,1.031a.423.423,0,0,0,.113.153.335.335,0,0,0,.2.061h.729l-1.989-5.062h-.962l-1.989,5.062h.732a.312.312,0,0,0,.2-.064.34.34,0,0,0,.11-.149l.378-1.031ZM-5931.5-2907a.5.5,0,0,0-.5.5.5.5,0,0,0,.5.5h8a.5.5,0,0,0,.5-.5.5.5,0,0,0-.5-.5Zm-14,0a.5.5,0,0,0-.5.5.5.5,0,0,0,.5.5h8a.5.5,0,0,0,.5-.5.5.5,0,0,0-.5-.5Zm21.823,11.447h-4.549v-.583c0-.765,1.482-1.166,2.276-1.166s2.272.4,2.272,1.166v.582Zm-2.272-2.328a1.154,1.154,0,0,1-1.139-1.166,1.154,1.154,0,0,1,1.139-1.166,1.153,1.153,0,0,1,1.138,1.166A1.153,1.153,0,0,1-5925.949-2897.881Zm-13.922-.027h-1.614l.616-1.675c.031-.078.061-.165.092-.272l.013-.04.006-.021c.023-.071.048-.155.079-.275.023.091.053.187.1.33.032.1.056.165.076.224l.016.044.616,1.681h0Zm-4.939-.607h-.705v-1.815h.705a1.419,1.419,0,0,1,.451.061.773.773,0,0,1,.32.177.73.73,0,0,1,.189.281,1.1,1.1,0,0,1,.061.366,1.209,1.209,0,0,1-.061.387.75.75,0,0,1-.189.29.8.8,0,0,1-.32.189A1.373,1.373,0,0,1-5944.811-2898.515Z" transform="translate(5950.001 2908.999)"/></svg>