<svg xmlns="http://www.w3.org/2000/svg" width="15.41" height="15.351" viewBox="0 0 15.41 15.351"><defs><style>.a{fill:#fff;}</style></defs><g transform="translate(0 -0.117)"><path class="a" d="M12.54,16.464H9.982v1.555H12.54c.761,0,1.351.4,1.351.74v6.894c0,.342-.59.741-1.351.741H2.869c-.761,0-1.351-.4-1.351-.741V18.76c0-.343.59-.741,1.351-.741H5.427V16.465H2.869C1.26,16.465,0,17.473,0,18.76v6.894c0,1.287,1.26,2.295,2.869,2.295h9.671c1.608,0,2.869-1.008,2.869-2.295V18.76C15.41,17.472,14.149,16.464,12.54,16.464Z" transform="translate(0 -12.48)"/><path class="a" d="M23.529,6.95a.707.707,0,0,0-.5.208l-.888.888V.827a.71.71,0,0,0-1.419,0V8.094l-.936-.936a.709.709,0,0,0-1,1L20.9,10.279a.707.707,0,0,0,.5.207h.011a.706.706,0,0,0,.5-.207l2.119-2.119a.709.709,0,0,0-.5-1.211Z" transform="translate(29.136 10.604) rotate(180)"/></g></svg>