<svg xmlns="http://www.w3.org/2000/svg" width="14.695" height="20.204" viewBox="0 0 14.695 20.204"><defs><style>.a{fill:#40494d;}</style></defs><path class="a" d="M-5879.327-1889.469l3.205-3.205h-2.764a.7.7,0,0,1-.7-.7l0-4.212a.7.7,0,0,1,.7-.7h5.615a.7.7,0,0,1,.7.7v4.212a.7.7,0,0,1-.7.7h-2.383v2.287a5.515,5.515,0,0,0,5.511-5.51,5.525,5.525,0,0,0-.644-2.572l1.341-1.341a7.275,7.275,0,0,1,1.14,3.913,7.345,7.345,0,0,1-7.348,7.347v2.755Zm.441-7.418,2.807,1.755,2.808-1.755v-.7l-2.808,1.755-2.807-1.755Zm-4.115.989a7.344,7.344,0,0,1,7.347-7.347V-1906l3.673,3.673-3.673,3.673v-2.755a5.514,5.514,0,0,0-5.51,5.51,5.4,5.4,0,0,0,.644,2.572l-1.342,1.341A7.286,7.286,0,0,1-5883-1895.9Z" transform="translate(5883 1905.999)"/></svg>